/* XPM */
static const char *stop1_xpm[] = {
"16 16 72 1",
" 	c None",
".	c #631818",
"X	c #5A0000",
"o	c #630000",
"O	c #4A0000",
"+	c #AD3129",
"@	c #D64A39",
"#	c #E75A4A",
"$	c #942118",
"%	c #DE2900",
"&	c #E72900",
"*	c #941810",
"=	c #CE2100",
"-	c #CE2908",
";	c #D62900",
":	c #520000",
">	c #BD2108",
",	c #EFD6CE",
"<	c #CE3110",
"1	c #D62100",
"2	c #B52910",
"3	c #DEADAD",
"4	c #F7E7E7",
"5	c #C62100",
"6	c #310000",
"7	c #F7EFEF",
"8	c #E7CEC6",
"9	c #BD3118",
"0	c #AD2110",
"q	c #D6ADA5",
"w	c #F7F7F7",
"e	c #D65239",
"r	c #9C1000",
"t	c #C63931",
"y	c #BD1800",
"u	c #BD2910",
"i	c #E7D6CE",
"p	c #DEB5B5",
"a	c #D67B6B",
"s	c #CE4231",
"d	c #AD1800",
"f	c #CE3121",
"g	c #B52918",
"h	c #CE6B63",
"j	c #BD2110",
"k	c #B51000",
"l	c #9C2110",
"z	c #E7D6D6",
"x	c #BD4A42",
"c	c #B52108",
"v	c #AD1000",
"b	c #A51000",
"n	c #D6A5A5",
"m	c #A52110",
"M	c #840000",
"N	c #941008",
"B	c #BD6B63",
"V	c #AD4A42",
"C	c #940800",
"Z	c #C6736B",
"A	c #AD3931",
"S	c #9C1810",
"D	c #FFFFFF",
"F	c #AD4239",
"G	c #210000",
"H	c #730000",
"J	c #8C0800",
"K	c #A53939",
"L	c #A53129",
"P	c #8C0000",
"I	c #8C0808",
"U	c #7B0000",
"    .XooooXO    ",
"   oo+@##@+oX   ",
"  o$#%%&&&%#*X  ",
" o$=--%%%;--=*: ",
"oo#>,,<1=234<5o6",
"o+5>,7890qw7e-r:",
"oty5u87ipw7as>dX",
"ofyyygi77whs>ydo",
"ojkddlp77zxckkvo",
"orvb*nwwz7imvvrX",
"XMbNqw7BViw8mbMO",
"OoCN47ZAS$8DFroG",
" XHJ$KLNCC*K*HO ",
"  XHPIIPPPJJH:  ",
"   :oHUMMUHoO   ",
"    6:XooXOG    "};
