/* XPM */
static const char * rotate_new_xpm[] = {
"24 24 202 2",
"  	c None",
". 	c #659806",
"+ 	c #477D03",
"@ 	c #5E9407",
"# 	c #AEC744",
"$ 	c #346600",
"% 	c #629906",
"& 	c #A4C62D",
"* 	c #CEE075",
"= 	c #619C13",
"- 	c #669F13",
"; 	c #69A021",
"> 	c #649C22",
", 	c #41770A",
"' 	c #A9CD31",
") 	c #A4CB17",
"! 	c #AFD137",
"~ 	c #BADB27",
"{ 	c #BBDC28",
"] 	c #C1DD4E",
"^ 	c #BDDA5E",
"/ 	c #A8CA5F",
"( 	c #76A63A",
"_ 	c #5A89B3",
": 	c #A8C9E3",
"< 	c #9EC1E2",
"[ 	c #203C61",
"} 	c #326000",
"| 	c #96C612",
"1 	c #9CCD00",
"2 	c #9ACC00",
"3 	c #A0CF00",
"4 	c #A0D000",
"5 	c #9FCF05",
"6 	c #9FCF0C",
"7 	c #ABD427",
"8 	c #C0DC6C",
"9 	c #6EA032",
"0 	c #88B0D5",
"a 	c #B3D5F1",
"b 	c #B8D4ED",
"c 	c #1E3B5B",
"d 	c #3E6D00",
"e 	c #83BC00",
"f 	c #9FD600",
"g 	c #3F7D00",
"h 	c #3B6F00",
"i 	c #538B00",
"j 	c #7FB800",
"k 	c #95CD00",
"l 	c #9ED307",
"m 	c #B1D755",
"n 	c #548912",
"o 	c #4B79A7",
"p 	c #AACBE7",
"q 	c #99C7E8",
"r 	c #B9D4EC",
"s 	c #1E3B59",
"t 	c #3F6B00",
"u 	c #88C500",
"v 	c #366700",
"w 	c #2F5700",
"x 	c #75B300",
"y 	c #99D700",
"z 	c #A9DD25",
"A 	c #76AD1B",
"B 	c #6E9CC6",
"C 	c #BADAF1",
"D 	c #90C1E4",
"E 	c #B9D5EC",
"F 	c #1E3B58",
"G 	c #427200",
"H 	c #396A00",
"I 	c #528B00",
"J 	c #95D600",
"K 	c #A7E50C",
"L 	c #7CBA0F",
"M 	c #4776A4",
"N 	c #A9C9E7",
"O 	c #A9CFED",
"P 	c #93C1E5",
"Q 	c #B9D5EB",
"R 	c #2F5600",
"S 	c #376700",
"T 	c #356500",
"U 	c #4B78A3",
"V 	c #C7E2F8",
"W 	c #9DC8E9",
"X 	c #99C6E7",
"Y 	c #B8D5EB",
"Z 	c #94B7DA",
"` 	c #B1D5F0",
" .	c #9FC9E9",
"..	c #9EC9E8",
"+.	c #B8D4EB",
"@.	c #5582AF",
"#.	c #B7D5EF",
"$.	c #A5CEEC",
"%.	c #A6CEEC",
"&.	c #A5CDEC",
"*.	c #B7D4EB",
"=.	c #1D3B58",
"-.	c #83ABD1",
";.	c #B8D7F1",
">.	c #ABD1ED",
",.	c #ABD0ED",
"'.	c #AAD0ED",
").	c #B6D3EB",
"!.	c #1D3A57",
"~.	c #447093",
"{.	c #AAC9E1",
"].	c #85AECE",
"^.	c #4774A0",
"/.	c #A4C7E6",
"(.	c #B7D8F2",
"_.	c #B1D4EF",
":.	c #B0D4EF",
"<.	c #1C3A57",
"[.	c #406E93",
"}.	c #F3F9FB",
"|.	c #D7E8F2",
"1.	c #9FC1DB",
"2.	c #6D9CC9",
"3.	c #C4E0F7",
"4.	c #B7D7F1",
"5.	c #B6D7F1",
"6.	c #B5D2EB",
"7.	c #3F6E93",
"8.	c #EEF6F9",
"9.	c #C1E0EB",
"0.	c #E5F2F6",
"a.	c #C1D8EA",
"b.	c #70A1C6",
"c.	c #A7C9E6",
"d.	c #C1DDF5",
"e.	c #BBD9F2",
"f.	c #BCDAF3",
"g.	c #F2F8FB",
"h.	c #CDE5EF",
"i.	c #CEE6F0",
"j.	c #E3F1F6",
"k.	c #D4E5F0",
"l.	c #8CB4D4",
"m.	c #4D7CA9",
"n.	c #CCE5FA",
"o.	c #C1DEF5",
"p.	c #C0DDF4",
"q.	c #C0DDF5",
"r.	c #3E6D93",
"s.	c #F6FAFC",
"t.	c #DBECF4",
"u.	c #DCEDF4",
"v.	c #E2F1F6",
"w.	c #E8F1F7",
"x.	c #9FC1DC",
"y.	c #5F94BC",
"z.	c #93B8DA",
"A.	c #C9E3F9",
"B.	c #C6E0F7",
"C.	c #C5E0F7",
"D.	c #C6E1F7",
"E.	c #B4D2EB",
"F.	c #F9FCFD",
"G.	c #E9F4F8",
"H.	c #E9F3F8",
"I.	c #E8F3F8",
"J.	c #CEE0EE",
"K.	c #79A8CE",
"L.	c #4E79A2",
"M.	c #BED9F1",
"N.	c #CDE5FA",
"O.	c #CCE4F8",
"P.	c #CBE4F8",
"Q.	c #CCE4F9",
"R.	c #CDE5F9",
"S.	c #3E6E93",
"T.	c #FDFEFE",
"U.	c #F5FAFB",
"V.	c #F7FBFC",
"W.	c #FCFDFD",
"X.	c #E1ECF4",
"Y.	c #8CB5D5",
"Z.	c #86AED2",
"`.	c #D9EEFC",
" +	c #DAEFFE",
".+	c #D9EEFD",
"++	c #D9EEFE",
"@+	c #DBEFFE",
"#+	c #BAD6EB",
"$+	c #416F93",
"%+	c #FFFFFF",
"&+	c #FEFFFF",
"*+	c #FEFEFE",
"=+	c #F1F6FA",
"-+	c #9ABEDB",
";+	c #315C85",
">+	c #2E5A85",
",+	c #2D5984",
"'+	c #2D5985",
")+	c #2F5B85",
"!+	c #3E6D92",
"~+	c #416C8D",
"                                                ",
"                            . +                 ",
"                          @ # $                 ",
"                        % & * = - ; >           ",
"                      , ' ) ! ~ { ] ^ / (       ",
"              _ : < [ } | 1 2 3 4 5 6 7 8 9     ",
"              0 a b c   d e f g h i j k l m n   ",
"            o p q r s     t u v     w x y z A   ",
"            B C D E F       G H       I J K L   ",
"          M N O P Q F                 R S T S   ",
"          U V W X Y F                           ",
"          Z `  ...+.F                           ",
"        @.#.$.%.&.*.=.                          ",
"        -.;.>.,.'.).!.~.{.].                    ",
"      ^./.(._._.:.).<.[.}.|.1.                  ",
"      2.3.4.4.5.5.6.<.7.8.9.0.a.b.              ",
"      c.d.e.f.e.e.6.<.7.g.h.i.j.k.l.            ",
"    m.n.o.p.q.p.p.6.<.r.s.t.t.u.v.w.x.y.        ",
"    z.A.B.C.B.C.D.E.<.r.F.G.H.G.I.H.F.J.K.      ",
"  L.M.N.O.P.Q.P.R.E.<.S.T.s.U.s.U.U.V.W.X.Y.    ",
"  Z.`. +.+.+++.+@+#+F $+%+&+*+&+*+*+&+&+%+=+-+  ",
"  ;+>+,+,+,+,+,+'+)+    [.!+!+!+!+!+!+!+!+7.~+  ",
"                                                ",
"                                                "};
