/* XPM */
static const char * addrect[] = {
"20 20 5 1",
"  	c None",
". 	c #0000CC",
", 	c #0000EE",
"# 	c #000099",
"* 	c #DD0000",
"                    ",
"                    ",
"                    ",
"   ,,,,,,,,,,,,     ",
"   ,...........     ",
"   ,.########,.     ",
"   ,.########,.     ",
"   ,.########,.     ",
"   ,.########,.     ",
"   ,.########,.     ",
"   ,.########,.     ",
"   ,.########,.     ",
"   ,.########,.**   ",
"   ,.,,,,,,,,,.**   ",
"   ,...........**   ",
"            ********",
"            ********",
"               **   ",
"               **   ",
"               **   "};
