/* XPM */
static const char *newfile_xpm[] = {
"17 16 46 1",
" 	c None",
".	c #BDD6F7",
"X	c #B5C6E7",
"o	c #ADB5CE",
"O	c #94BDEF",
"+	c #FFFFFF",
"@	c #F7F7F7",
"#	c #EFEFF7",
"$	c #E7EFF7",
"%	c #D6DEEF",
"&	c #737BB5",
"*	c #84A5D6",
"=	c #849CCE",
"-	c #8CB5E7",
";	c #F7F7FF",
":	c #EFF7FF",
">	c #CEDEF7",
",	c #52A5EF",
"<	c #7B9CCE",
"1	c #E7F7FF",
"2	c #8CADDE",
"3	c #DEEFFF",
"4	c #CED6FF",
"5	c #B5B5FF",
"6	c #737BAD",
"7	c #CEE7FF",
"8	c #C6E7FF",
"9	c #6B7BAD",
"0	c #BDDEFF",
"q	c #6B73A5",
"w	c #8494C6",
"e	c #7B8CBD",
"r	c #B5D6FF",
"t	c #6B6BA5",
"y	c #7B8CB5",
"u	c #ADD6FF",
"i	c #636B9C",
"p	c #7B84B5",
"a	c #DEE7F7",
"s	c #A5D6FF",
"d	c #D6E7F7",
"f	c #636394",
"g	c #737BA5",
"h	c #C6CEFF",
"j	c #7373A5",
"k	c #5A6394",
"  .XXXXXXXXoX    ",
"  O++@@@#$%&*=   ",
"  -+++++;:>&,<   ",
"  -++++;:1>&&&   ",
"  2+++;:113456   ",
"  *@+;:1133776   ",
"  *@;:11337789   ",
"  =#:11337780q   ",
"  w#113377800q   ",
"  e$13377800rt   ",
"  y$3377800rui   ",
"  pa377800rusi   ",
"  6d77800russf   ",
"  ghhhhhhhhhhf   ",
"  jjjjjjjjjjjk   ",
"                 "};
