/* XPM */
static const char *wraparound_xpm[] = {
"16 16 5 1",
" 	c None",
".	c #3D3DA6",
"*	c #9D9DC0",
"#	c #3D3D3D",
"X	c #7D7D7D",
"XXXXXXXXXXXXX   ",
"############X   ",
"                ",
"XXXXXXXXXXXXX   ",
"############X   ",
"                ",
"XXXXXXXX  ***** ",
"#######X  .....*",
"              .*",
"          *   .*",
"         .*   .*",
"XXXXXX  .*****.*",
"#####X ........*",
"#####X  ......* ",
"         .*     ",
"          *     "};

