/* XPM */ 
static char * breakpoint_crossed_xpm[] = {
"16 16 48 1",
" 	c None",
"!	c black",
"#	c #FF0000",
"$	c #5C5C5C",
"%	c #AF4A4A",
"&	c #898989",
"'	c #888888",
"(	c #878787",
")	c #868686",
"*	c #A53F3F",
"+	c #C66161",
",	c #9F9F9F",
"-	c #9E9E9E",
".	c #C35E5E",
"0	c #9B9B9B",
"1	c #C35D5D",
"2	c #9D3838",
"3	c #D83636",
"4	c #BD5858",
"5	c #6D6D6D",
"6	c #818181",
"7	c #929292",
"8	c #BD5757",
"9	c #BA5454",
":	c #8A8A8A",
";	c #6B6B6B",
"<	c #7B7B7B",
"=	c #D33232",
">	c #D23030",
"?	c #838383",
"@	c #686868",
"A	c #757575",
"B	c #B34E4E",
"C	c #7A7A7A",
"D	c #656565",
"E	c #6C6C6C",
"F	c #AB4646",
"G	c #CB2929",
"H	c #A84242",
"I	c #616161",
"J	c #A03B3B",
"K	c #9F3A3A",
"L	c #942F2F",
"M	c #4E4E4E",
"N	c #4D4D4D",
"O	c #545454",
"P	c #535353",
"Q	c #525252",
"                ",
" ###         ###",
" ####$$$$$$$####",
" ####%&&'()*####",
"  ####+,,-.#### ",
"  $%###.01###2$ ",
"  $)1###3###45$ ",
"  $678#####9:;$ ",
"  $<::=###>??@$ ",
"  $A6B#####%CD$ ",
"  $EF###G###HI$ ",
"  $2###JIK###2$ ",
"  ####LMNNL#### ",
" ####2OPPPQ2####",
" ####$$$$$$$####",
" ###         ###"};