/* XPM */
static const char *disconnect16_xpm[] = {
"16 16 86 1",
" 	c None",
".	c #BABACB",
"X	c #89A6CF",
"o	c #7878CB",
"O	c #93B6C6",
"+	c #37375D",
"@	c #5C5C9C",
"#	c #FB797B",
"$	c #FB6D6F",
"%	c #E87885",
"&	c #8375BF",
"*	c #282853",
"=	c #FF7B7B",
"-	c #FF6F6F",
";	c #BC8BB0",
":	c #F75C5C",
">	c #FF6666",
",	c #D16171",
"<	c #5F5A8B",
"1	c #FF6464",
"2	c #FB6060",
"3	c #EC6E6E",
"4	c #E09C9C",
"5	c #FA4040",
"6	c #FE5D5D",
"7	c #E17C7F",
"8	c #FA6667",
"9	c #FF4141",
"0	c #F34848",
"q	c #6E6E8F",
"w	c #8989D4",
"e	c #6060C6",
"r	c #C7C7DB",
"t	c #E0E0E1",
"y	c #D9D9DD",
"u	c #DC838B",
"i	c #FA3E3E",
"p	c #FE5755",
"a	c #FC3838",
"s	c #F74040",
"d	c #A0A0B7",
"f	c #9797C0",
"g	c #C0C0E0",
"h	c #C5C5D9",
"j	c #9797D0",
"k	c #7A7ACC",
"l	c #8A8ABF",
"z	c #ACA0C0",
"x	c #EF6663",
"c	c #F02A29",
"v	c #F03238",
"b	c #EC4A4C",
"n	c #F3F3F3",
"m	c #F2F2F2",
"M	c #DEDEDF",
"N	c #C0C0DB",
"B	c #A0A0CC",
"V	c #9292C0",
"C	c #EC8281",
"Z	c #E32A2A",
"A	c #E52D2C",
"S	c #E52D2D",
"D	c #DC3939",
"F	c #D2D2DB",
"G	c #CDCDDD",
"H	c #ADADC5",
"J	c #8989B3",
"K	c #F0A8A6",
"L	c #D92725",
"P	c #D72827",
"I	c #C43237",
"U	c #C8292C",
"Y	c #DA2626",
"T	c #DB3B38",
"R	c #F2C1C1",
"E	c #D13131",
"W	c #CC1C1C",
"Q	c #CD4746",
"!	c #CB2A2A",
"~	c #CB1D1D",
"^	c #D74747",
"/	c #C63434",
"(	c #BE1B1B",
")	c #C44444",
"_	c #C12020",
"`	c #BF1D1D",
"     ....XXXo   ",
"     O++++++o   ",
"     O++++++o   ",
"....XXXo++++o   ",
"O++++++o++++o   ",
"O++++++o++++o   ",
"O++++++o@@@@o   ",
"O++++++#$%&*  =-",
"O++++++;:>,< 123",
"O@@@@@@o4567890 ",
" qwwwertyuipas  ",
"dfghjklffzxcvb  ",
"jnmMNBV  CZASD  ",
"jytFGHJ KLPIUYT ",
" fffff REWQ  !~^",
"       /()    _`"};
