/* XPM */
static const char * gtk_apply_xpm[] = {
"20 20 123 2",
"  	c None",
". 	c #478D04",
"+ 	c #468D04",
"@ 	c #AADA7D",
"# 	c #ADDB80",
"$ 	c #63A228",
"% 	c #468C04",
"& 	c #7DB746",
"* 	c #C7EEA1",
"= 	c #A8E36D",
"- 	c #CEEFAC",
"; 	c #88C34F",
"> 	c #4C900C",
", 	c #CAECA8",
"' 	c #9EE15E",
") 	c #8DDB40",
"! 	c #CAEEA7",
"~ 	c #6DAB32",
"{ 	c #478D05",
"] 	c #9ED16D",
"^ 	c #BAEA8B",
"/ 	c #8FDC42",
"( 	c #ABE573",
"_ 	c #A8D879",
": 	c #478E04",
"< 	c #62A125",
"[ 	c #CFF0B0",
"} 	c #99DF54",
"| 	c #8ADB3C",
"1 	c #CCEEAB",
"2 	c #539514",
"3 	c #BAE491",
"4 	c #AFE779",
"5 	c #84D931",
"6 	c #BDEB91",
"7 	c #8AC154",
"8 	c #84BD4E",
"9 	c #C7EFA2",
"0 	c #91DD45",
"a 	c #9AE055",
"b 	c #BFE698",
"c 	c #488E06",
"d 	c #468B04",
"e 	c #4F9210",
"f 	c #CDEFAC",
"g 	c #A4E465",
"h 	c #83DA2F",
"i 	c #CCEFAA",
"j 	c #67A52C",
"k 	c #A6D379",
"l 	c #C7ECA3",
"m 	c #6BAA31",
"n 	c #488E05",
"o 	c #A5D676",
"p 	c #BBEB8B",
"q 	c #89DC38",
"r 	c #AEE777",
"s 	c #A4D574",
"t 	c #478E05",
"u 	c #488F06",
"v 	c #8DC458",
"w 	c #CEF3AA",
"x 	c #B6EC81",
"y 	c #D3F3B4",
"z 	c #99CD67",
"A 	c #498D07",
"B 	c #448903",
"C 	c #6AA82F",
"D 	c #D0F1AF",
"E 	c #99E153",
"F 	c #8DDE3F",
"G 	c #CCEEAC",
"H 	c #509311",
"I 	c #498F06",
"J 	c #93CD5C",
"K 	c #D0F2AE",
"L 	c #ADE971",
"M 	c #ABE86E",
"N 	c #C7EF9F",
"O 	c #72AF39",
"P 	c #C3E99E",
"Q 	c #AEE876",
"R 	c #86DC31",
"S 	c #C3ED99",
"T 	c #84BC4E",
"U 	c #85BE4E",
"V 	c #D2F2B3",
"W 	c #B5EA80",
"X 	c #A4E763",
"Y 	c #B4EB7F",
"Z 	c #C8F09F",
"` 	c #B6EA84",
" .	c #8EDF40",
"..	c #A0E45E",
"+.	c #BBE494",
"@.	c #5E9E21",
"#.	c #C4EA9F",
"$.	c #C3EF98",
"%.	c #9BE454",
"&.	c #91E044",
"*.	c #8ADF38",
"=.	c #86DD31",
"-.	c #CFF0AD",
";.	c #62A126",
">.	c #4A8F09",
",.	c #A5D675",
"'.	c #CEF2AC",
").	c #96E24C",
"!.	c #81DC29",
"~.	c #B5EA81",
"{.	c #9FD16F",
"].	c #7CB743",
"^.	c #D0F1B0",
"/.	c #B6EB83",
"(.	c #CCEDAB",
"_.	c #4D910D",
":.	c #468A05",
"<.	c #589A1A",
"[.	c #AFE081",
"}.	c #6EAD31",
"|.	c #448704",
"1.	c #468C05",
"2.	c #458905",
"                            . .         ",
"                          + @ # $ .     ",
"                        % & * = - ; .   ",
"                        > , ' ) ! ~     ",
"                      { ] ^ / ( _ :     ",
"                      < [ } | 1 2       ",
"                    % 3 4 5 6 7 .       ",
"                  { 8 9 0 a b {         ",
"    c d           e f g h i j           ",
"  { k l m n     { o p q r s t           ",
"u v w x y z A B C D E F G H             ",
"I J K L M N b O P Q R S T .             ",
"  n U V W X Y Z `  ...+.{               ",
"    { @.#.$.%.&.*.=.-.;.                ",
"        >.,.'.).!.~.{.n                 ",
"          { ].^./.(._.                  ",
"            :.<.[.}.|.                  ",
"                1.2.                    ",
"                                        ",
"                                        "};
