/* XPM */
static char *newcontinue1_xpm[] = {
"16 16 22 1",
" 	c None",
".	c #004263",
"X	c #ADDEE7",
"o	c #8CCEDE",
"O	c #A5D6E7",
"+	c #84C6D6",
"@	c #7BB5CE",
"#	c #94CEDE",
"$	c #94C6D6",
"%	c #6BADC6",
"&	c #63A5BD",
"*	c #6BA5BD",
"=	c #5A94B5",
"-	c #5A9CBD",
";	c #4A8CAD",
":	c #4284AD",
">	c #4284A5",
",	c #397BA5",
"<	c #4A8CB5",
"1	c #31739C",
"2	c #216B94",
"3	c #185A8C",
"  .. ..         ",
" .XX.XX.    ... ",
" .XoX.oX.  .....",
" .O++X.+X. .XXX.",
" .O@@@X.@X..#@@.",
" .$%%%%X.%X.+%%.",
" .@&&&&&X.&.@&&.",
" .*=-----.-.%--.",
" .=;;;;;;.;.&;;.",
" .;:::::.::.=::.",
" .>,,,,.,,..<,,.",
" .1111.11. .>11.",
" .222.22.  .....",
" .33.33.    ... ",
"  .. ..         ",
"                "};
