/* XPM */
static char *newstop1_xpm[] = {
"15 15 14 1",
" 	c None",
".	c #004263",
"X	c #ADDEEF",
"o	c #9CCEDE",
"O	c #94CEDE",
"+	c #7BB5CE",
"@	c #84C6D6",
"#	c #6BADC6",
"$	c #63A5BD",
"%	c #5A9CBD",
"&	c #4A8CB5",
"*	c #4284AD",
"=	c #397BA5",
"-	c #31739C",
"               ",
"               ",
"   .........   ",
"  .XXXXXXXXo.  ",
"  .O++++++++.  ",
"  .@########.  ",
"  .+$$$$$$$$.  ",
"  .#%%%%%%%%.  ",
"  .$&&&&&&&&.  ",
"  .%********.  ",
"  .&========.  ",
"  .=--------.  ",
"   .........   ",
"               ",
"               "};
