/* XPM */
static char *openlocal_xpm[] = {
"16 16 77 1",
" 	c None",
".	c #EFDEAD",
"X	c #DEBD63",
"o	c #E7C67B",
"O	c #EFD6A5",
"+	c #EFCE84",
"@	c #FFF7C6",
"#	c #FFFFC6",
"$	c #FFFFEF",
"%	c #CE9C10",
"&	c #E7CE8C",
"*	c #D6A529",
"=	c #E7BD6B",
"-	c #E7C673",
";	c #E7BD73",
":	c #FFFF94",
">	c #FFF7DE",
",	c #DEBD4A",
"<	c #FFF7B5",
"1	c #FFFFB5",
"2	c #F7EF63",
"3	c #FFFFA5",
"4	c #FFFF9C",
"5	c #F7E752",
"6	c #DEB54A",
"7	c #E7CE94",
"8	c #FFF78C",
"9	c #FFE763",
"0	c #E7C65A",
"q	c #F7E7C6",
"w	c #FFFFF7",
"e	c #FFFFFF",
"r	c #8C6300",
"t	c #E7BD52",
"y	c #FFEF8C",
"u	c #FFE784",
"i	c #FFDE73",
"p	c #FFD65A",
"a	c #F7CE52",
"s	c #E7BD31",
"d	c #FFFFE7",
"f	c #FFF7CE",
"g	c #D6B55A",
"h	c #CEC6AD",
"j	c #FFCE42",
"k	c #E7C684",
"l	c #F7F7D6",
"z	c #FFFFBD",
"x	c #FFEF9C",
"c	c #845A00",
"v	c #DEB539",
"b	c #FFD673",
"n	c #E7AD39",
"m	c #FFF784",
"M	c #CEC6A5",
"N	c #DEAD29",
"B	c #FFC652",
"V	c #FFEF84",
"C	c #9C7300",
"Z	c #DEA510",
"A	c #F7B531",
"S	c #F7EFCE",
"D	c #F7D64A",
"F	c #BDAD8C",
"G	c #EFDE9C",
"H	c #FFE773",
"J	c #EFCE7B",
"K	c #FFE77B",
"L	c #F7C631",
"P	c #C69C18",
"I	c #A57300",
"U	c #FFD652",
"Y	c #EFBD29",
"T	c #BD8C00",
"R	c #BD9431",
"E	c #B59442",
"W	c #BDAD73",
"                ",
" .XoX           ",
"O+@#$% &o*=-    ",
";#:::>,<##12    ",
"o34444334::56--7",
"-:8888:90&Oqweer",
"tyuipas;edd<fegh",
"6ujkql$d11zx@ec ",
"vbne:4::444m#0M ",
"NB738::::::V#C  ",
"ZASmVVVVVV8VDF  ",
"GNdHuuuuuyy8C   ",
"JoxiKuuKHLPI    ",
"0SHKUYTRE       ",
"XXTIWh          ",
"                "};
