/* XPM */
static char *savefile_xpm[] = {
"17 16 26 1",
" 	c None",
".	c #7384BD",
"X	c #4A4A9C",
"o	c #8C8CBD",
"O	c #C6C6C6",
"+	c #6363CE",
"@	c #F7F7F7",
"#	c #BDBDBD",
"$	c #CECEDE",
"%	c #9494CE",
"&	c #B5B5CE",
"*	c #ADADAD",
"=	c #B5B5B5",
"-	c #CECED6",
";	c #31319C",
":	c #C6C6E7",
">	c #4242AD",
",	c #7373AD",
"<	c #DEDEDE",
"1	c #5252B5",
"2	c #9C9CAD",
"3	c #7373C6",
"4	c #B5B5DE",
"5	c #E7E7E7",
"6	c #39397B",
"7	c #42429C",
"                 ",
"                 ",
" .XoOOOOOOOOoX   ",
" .+o@@@@@@@@o+X  ",
" .+o@##OOOO@o+X  ",
" .+o@@@@@@@@o+X  ",
" .+o@#OOOOO@o+X  ",
" .+o@@@@@@@@o+X  ",
" .++oooooooo++X  ",
" .++++++++++++X  ",
" .++X$%&*=-;;+X  ",
" .++X:>,=<@;;+X  ",
" .++X&1o<@@;;+X  ",
" .++X234@@5;;+X  ",
"  6X7======;;XX  ",
"                 "};
