/* XPM */
static const char *stepnext_xpm[] = {
"16 16 6 1",
" 	c None",
".	c #3D3DA6",
"*	c #9D9DC0",
"#	c #3D3D3D",
"X	c #7D7D7D",
":  c #C80000", //#C80000
"    XXXXXX      ",
"    #####X      ",
"    :           ",
"       XXXXXX   ",
"    :  #####X   ",
"   *            ",
"   **  :  XXXXXX",
"***.**    #####X",
".....**:        ",
"......    XXXXXX",
"   ..  :  #####X",
"   .            ",
"    :  XXXXXX   ",
"       #####X   ",
"    :           ",
"    XXXXXX      "};
