/* XPM */
static char *stepover_xpm[] = {
"16 16 3 1",
" 	c #C0C0C0",
".	c #4D4DA6",
"X	c #4D4D4D",
"                ",
" .....          ",
".               ",
".      XXXXXXXX ",
".               ",
".        XXXXXX ",
".               ",
".        XXXXXX ",
".               ",
".        XXXXXX ",
".               ",
".  .   XXXXXXXX ",
".  ..           ",
" .....          ",
"   ..           ",
"   .            "};
