/* XPM */
static const char *stepout_xpm[] = {
"16 16 3 1",
" 	c #C0C0C0",
".	c #4D4DA6",
"X	c #4D4D4D",
"                ",
"   .            ",
"   ..           ",
" .....          ",
".  ..           ",
".  .   XXXXXXXX ",
".               ",
".         XXXXX ",
" .......        ",
"          XXXXX ",
"                ",
"          XXXXX ",
"                ",
"       XXXXXXXX ",
"                ",
"                "};
