/* XPM */ 
static char * breakpoint_xpm[] = {
"16 16 24 1",
" 	c None",
"!	c black",
"#	c #F79590",
"$	c #F99591",
"%	c #F0847D",
"&	c #EA817B",
"'	c #E3847F",
"(	c #D57570",
")	c #C97470",
"*	c #C8726F",
"+	c #C8706D",
",	c #C76F6A",
"-	c #C76D68",
".	c #C66C67",
"0	c #C56A65",
"1	c #C56862",
"2	c #C36760",
"3	c #C3655F",
"4	c #C3625D",
"5	c #B15D57",
"6	c #B05751",
"7	c #9B514C",
"8	c #7D413E",
"9	c #6D3835",
"                ",
"                ",
"     !!!!!!!    ",
"    !#######!   ",
"   !$$$$$$$$$!  ",
"  !%%%%%%%%%%%! ",
"  !&&&&&&&&&&&! ",
"  !'''''''''''! ",
"  !(((((((((((! ",
"  !)*+,-.01234! ",
"  !55555555556! ",
"  !77777777777! ",
"   !888888888!  ",
"    !9999999!   ",
"     !!!!!!!    ",
"                "};