/* XPM */
static char *connect16_xpm[] = {
"16 16 69 1",
" 	c None",
".	c #BABACB",
"X	c #89A6CF",
"o	c #7878CB",
"O	c #93B6C6",
"+	c #85CFF7",
"@	c #8FE0FF",
"#	c #B1E7F4",
"$	c #C6FCFF",
"%	c #9DDCF5",
"&	c #91CAED",
"*	c #9FE8FF",
"=	c #A3EAFF",
"-	c #99E5FF",
";	c #8EDAFB",
":	c #000000",
">	c #8CDFFF",
",	c #70D1FF",
"<	c #9CE7FF",
"1	c #66CCFF",
"2	c #5CC7FF",
"3	c #80D9FF",
"4	c #79D5FF",
"5	c #33B3FF",
"6	c #53B3F6",
"7	c #63CAFF",
"8	c #8484CD",
"9	c #282853",
"0	c #46BCFF",
"q	c #4DC0FF",
"w	c #49BEFF",
"e	c #43B1F9",
"r	c #C5C5D9",
"t	c #9797D0",
"y	c #6D6DCC",
"u	c #59598C",
"i	c #DEDEDF",
"p	c #B0B0D6",
"a	c #9393CC",
"s	c #8F8FC0",
"d	c #585878",
"f	c #6E6E8F",
"g	c #8989D4",
"h	c #6060C6",
"j	c #C7C7DB",
"k	c #E0E0E1",
"l	c #D9D9DD",
"z	c #CDCDDD",
"x	c #B9B9CC",
"c	c #9999C0",
"v	c #494966",
"b	c #9797C0",
"n	c #C0C0E0",
"m	c #7A7ACC",
"M	c #8A8ABF",
"N	c #595979",
"B	c #F3F3F3",
"V	c #F2F2F2",
"C	c #C0C0DB",
"Z	c #A0A0CC",
"A	c #9292C0",
"S	c #212131",
"D	c #232334",
"F	c #242437",
"G	c #14141D",
"H	c #D2D2DB",
"J	c #ADADC5",
"K	c #8989B3",
"L	c #191926",
"     ....XXXo   ",
"     O+@#$%&o   ",
"     O+@*=-;o:  ",
"....XXXo-->,o:  ",
"O+@#$<&o1111o:  ",
"O+@---+o1122o:  ",
"O+33341o5566o:  ",
"O111117o88o9:   ",
"O00qqweortyu    ",
"O666666oipasd   ",
" fggghjklzxcv   ",
" bnrtmMbbbbN:   ",
"tBViCZASDFG:    ",
"tlkHzJK:        ",
" bbbbbL         ",
"   :::          "};
