/* XPM */
static char *stop_xpm[] = {
"16 16 2 1",
" 	c #C0C0C0",
".	c #4D4DA6",
"                ",
"                ",
"                ",
"                ",
"    ........    ",
"    ........    ",
"    ........    ",
"    ........    ",
"    ........    ",
"    ........    ",
"    ........    ",
"    ........    ",
"                ",
"                ",
"                ",
"                "};
