/* XPM */
static const char *upfolder_xpm[] = {
/* columns rows colors chars-per-pixel */
"16 16 99 2",
"   c black",
".  c #006300",
"X  c #086B00",
"o  c #087300",
"O  c #107308",
"+  c #107B08",
"@  c #187B18",
"#  c #317B08",
"$  c #217B21",
"%  c #108C08",
"&  c #189C08",
"*  c #218410",
"=  c #218C10",
"-  c #218C18",
";  c #299418",
":  c #318418",
">  c #298429",
",  c #398429",
"<  c #398C39",
"1  c #39A518",
"2  c #31B518",
"3  c #428C39",
"4  c #528C29",
"5  c #42AD21",
"6  c #42B521",
"7  c #4ABD21",
"8  c #5ABD39",
"9  c #639429",
"0  c #4A8C42",
"q  c #6BA56B",
"w  c #7BAD7B",
"e  c #52C629",
"r  c #63CE31",
"t  c #6BD639",
"y  c #63C642",
"u  c #73DE42",
"i  c #7BE74A",
"p  c #BD9C10",
"a  c #84AD42",
"s  c #84EF52",
"d  c #8CF75A",
"f  c #CE9C00",
"g  c #D6A518",
"h  c #D6AD29",
"j  c #DEAD31",
"k  c #DEB531",
"l  c #DEBD39",
"z  c #DEBD52",
"x  c #DEBD5A",
"c  c #E7BD42",
"v  c #E7BD52",
"b  c #DEC66B",
"n  c #E7C642",
"m  c #EFC64A",
"M  c #F7CE5A",
"N  c #E7C673",
"B  c #E7CE7B",
"V  c #E7D663",
"C  c #F7D663",
"Z  c #F7DE7B",
"A  c #FFDE73",
"S  c #EFE77B",
"D  c #FFE77B",
"F  c #8CB584",
"G  c #8CBD84",
"H  c #B5D6B5",
"J  c #DEEF84",
"K  c #DEE7AD",
"L  c #E7D694",
"P  c #EFDE9C",
"I  c #FFD684",
"U  c #FFDE8C",
"Y  c #E7D6A5",
"T  c #EFDEAD",
"R  c #EFDEB5",
"E  c #FFEF84",
"W  c #FFEF94",
"Q  c #FFF78C",
"!  c #FFFF94",
"~  c #FFFF9C",
"^  c #EFF7BD",
"/  c #F7E7A5",
"(  c #FFE7A5",
")  c #FFF7AD",
"_  c #FFFFAD",
"`  c #FFFFBD",
"'  c #C6DEC6",
"]  c #D6E7D6",
"[  c #EFE7CE",
"{  c #F7EFC6",
"}  c #F7EFDE",
"|  c #FFF7CE",
" . c #FFFFC6",
".. c #FFFFCE",
"X. c #FFFFD6",
"o. c #E7EFE7",
"O. c #FFFFE7",
"+. c #FFFBF0",
"@. c None",
/* pixels */
"@.@.@.@.@.@.@.q < ] @.@.@.@.@.@.",
"@.@.@.@.@.@.H o & @ F @.@.@.@.@.",
"@.@.@.@.@.o.$ & 2 6 ; > ' @.@.@.",
"@.@.@.@.@.q % 2 7 e r 1 X w @.@.",
"@.@.j j j . + + 5 r t $ + + @.@.",
"@.j P | ^ j j j = t u < @.@.@.@.",
"@.j  .~ ~ ` .. .+ u i , @.@.@.@.",
"@.j ) ! ! ! ! j # i u 0 j j @.@.",
"@.j W D C n l P 3 s 8 G +.b @.@.",
"@.j U c T O.X. .* d - K / Y @.@.",
"@.j I N _ ~ ~ J ; y 9 ) z @.@.@.",
"@.j v { Q Q Q a - : S Z L @.@.@.",
"@.j v | E E E O 4 V m k } @.@.@.",
"@.j B ( A M c p f g x Y @.@.@.@.",
"@.j P g f h b Y [ @.@.@.@.@.@.@.",
"@.j j R } @.@.@.@.@.@.@.@.@.@.@."
};
