/* XPM */
static const char * gtk_apply_xpm[] = {
"20 20 8 1",
"  	c None",
". 	c #222222",
", 	c #338822",
"+ 	c #99CC00",
"* 	c #75B900",
"@ 	c #60A500",
"# 	c #307000",
": 	c #225500",
"               .... ",
"              .++++.",
"              .+**+.",
"             .+@@@:.",
"            .,+@@#. ",
"            .+@@#.  ",
"           .+@@#:.  ",
"          .,+@@#.   ",
"  ..      .+@@#.    ",
" .++.    .+@@#:.    ",
".@*++.  .,+@@#.     ",
".#@*++. .+@@#.      ",
" .#@*++.+@@#:.      ",
"  .#@*+++@@#.       ",
"   .#@*+@@#.        ",
"    .#@@@#:.        ",
"     .#@@#.         ",
"      .##.          ",
"       ..           ",
"                    "};
