/* XPM */
static const char *openremote_xpm[] = {
"16 16 26 1",
" 	c None",
".	c #C99C26",
"X	c #FFFED0",
"o	c #DFC370",
"O	c #FFFFB3",
"+	c #FFFF99",
"@	c #737373",
"#	c #FFF38D",
"$	c #FFF58F",
"%	c #FFF4A2",
"&	c #FFE37D",
"*	c #FFFFE7",
"=	c #F1C96B",
"-	c #EFCC83",
";	c #FFFD97",
":	c #F2E5BF",
">	c #FFEC89",
",	c #FFDB75",
"<	c #9C9C9C",
"1	c #263043",
"2	c #DAAD49",
"3	c #DFBC50",
"4	c #C2921C",
"5	c #D2B663",
"6	c #ECBF59",
"7	c #8F6D16",
"   ...          ",
"  .XXXooooo     ",
" .O++OXO++o@    ",
" .O#$##......@  ",
" .%&...*XXOX.@  ",
" .=.*OO+++%+.@  ",
" ..-O;;;++%.@   ",
" ..:>>>>>>+.@   ",
" .XX&&&,...@    ",
" .......@@@     ",
" @@@@<@1        ",
"    2o34        ",
" <<<5**4<<<     ",
" 111.664111     ",
"  @@7777@@@     ",
"    @@@@@       "};
