/* XPM */
static const char * addline[] = {
"20 20 4 1",
"  	c None",
". 	c #0000CC",
", 	c #0000EE",
"* 	c #DD0000",
"                    ",
"                    ",
"  ,,                ",
"  ..,               ",
"   ..,              ",
"    ..,             ",
"     ..,            ",
"      ..,           ",
"       ..,          ",
"        ..,         ",
"         ..,        ",
"          ..,       ",
"           .., **   ",
"            ..,**   ",
"             ..**   ",
"            ********",
"            ********",
"               **   ",
"               **   ",
"               **   "};
