/* XPM */
static const char * addtext[] = {
"20 20 3 1",
"  	c None",
". 	c #000000",
", 	c #888888",
"                    ",
"                    ",
"              ..... ",
"                .   ",
" .,        ,.   .   ",
" ............   .   ",
" .,,,....,,,.   .   ",
" .    ..    .   .   ",
"      ..        .   ",
"      ..        .   ",
"      ..        .   ",
"      ..        .   ",
"     ,..,       .   ",
"    ......      .   ",
"                .   ",
"                .   ",
"              ..... ",
"                    ",
"                    ",
"                    "};
