/* XPM */
static const char *cpp_xpm[] = {
"16 16 5 1",
" 	c #FFFFFF",
".	c #808080",
"X	c #C0C0C0",
"o	c #000000",
"O	c #000080",
" ..........     ",
" .        X.    ",
" .        XX.   ",
" .        oooo  ",
" .          Xo  ",
" .  OOO   O Xo  ",
" . OO OO OOOXo  ",
" . OO OO  O Xo  ",
" . OO       Xo  ",
" . OO OO  O Xo  ",
" . OO OO OOOXo  ",
" .  OOO   O Xo  ",
" .          Xo  ",
" .          Xo  ",
" .XXXXXXXXXXXo  ",
" ooooooooooooo  "};
