/* XPM */
static const char *lib_xpm[] = {
"16 16 5 1",
" 	c None",
".	c #808080",
"X	c #FFFFFF",
"o	c #000000",
"O	c #000080",
"  ..........    ",
"  .XXXXXXXX..   ",
"  .XXXXXXXX.X.  ",
"  .XXXXXXXXoooo ",
"  .XXXXXXXXXXXo ",
"  .XXXXXXXXXXXo ",
"  .XOXXXOXOOXXo ",
"  .XOXXXOXOXOXo ",
"  .XOXXXOXOXOXo ",
"  .XOXXXOXOOXXo ",
"  .XOXXXOXOXOXo ",
"  .XOXXXOXOXOXo ",
"  .XOOOXOXOOXXo ",
"  .XXXXXXXXXXXo ",
"  ooooooooooooo ",
"                "};
