/* XPM */
static char *moz_xpm[] = {
"16 16 65 1",
" 	c #C0C0C0",
".	c #007BB5",
"X	c #1884BD",
"o	c #000000",
"O	c #3194C6",
"+	c #BDDEEF",
"@	c #52A5CE",
"#	c #0073AD",
"$	c #0052AD",
"%	c #C6DEEF",
"&	c #63ADCE",
"*	c #429CC6",
"=	c #107BB5",
"-	c #006B9C",
";	c #00639C",
":	c #006394",
">	c #6BADD6",
",	c #9CCEE7",
"<	c #ADD6EF",
"1	c #A5CEE7",
"2	c #94C6E7",
"3	c #2184B5",
"4	c #086BA5",
"5	c #1873A5",
"6	c #005A8C",
"7	c #5AADCE",
"8	c #C6E7EF",
"9	c #B5DEEF",
"0	c #8CC6DE",
"q	c #7BBDDE",
"w	c #73B5DE",
"e	c #086B9C",
"r	c #087BB5",
"t	c #63ADD6",
"y	c #217BAD",
"u	c #3184B5",
"i	c #298CBD",
"p	c #84BDDE",
"a	c #6BADCE",
"s	c #6BB5D6",
"d	c #001829",
"f	c #187BAD",
"g	c #006BA5",
"h	c #2173A5",
"j	c #4A9CC6",
"k	c #106B9C",
"l	c #00395A",
"z	c #004A6B",
"x	c #004A73",
"c	c #106BA5",
"v	c #086394",
"b	c #00426B",
"n	c #00527B",
"m	c #002942",
"M	c #003952",
"N	c #005284",
"B	c #2184BD",
"V	c #52A5C6",
"C	c #1884B5",
"Z	c #1084BD",
"A	c #1073A5",
"S	c #2984AD",
"D	c #087BBD",
"F	c #004A7B",
"G	c #005A84",
"    .X.oo       ",
"   .O+@#oo      ",
" $..@%&*=-o;:oo ",
" .>,%+<123-456oo",
".78%9<120qw>@eoo",
"r%+91,&0qwtyu6oo",
"i+9pa&5qst7y6doo",
"#3fgqau&5hj*kloo",
"oz:xcej&vbkO3noo",
"o;uemM:knoN3BNoo",
" 6yVvxooomNCZnoo",
" o6hjh6NnNAZgxoo",
" oonvSO3CXD;xdoo",
"  ooMFn6GGxboooo",
"   ooooooooooooo",
"    oooooooooo  "};
