/* XPM */
static const char *openfolder16x1632bpp_xpm[] = {
"16 16 40 1",
" 	c None",
".	c #CEA221",
"X	c #FFFFFF",
"o	c #C69A18",
"O	c #FFFF9C",
"+	c #FFF39C",
"@	c #FFF38C",
"#	c #9D7A19",
"$	c #FFEB84",
"%	c #E2C14F",
"&	c #B18918",
"*	c #FFD784",
"=	c #DABF6B",
"-	c #FFFBF7",
";	c #FFE784",
":	c #A17D18",
">	c #FDD56F",
",	c #F7F089",
"<	c #FFC75A",
"1	c #FBF996",
"2	c #9B7A18",
"3	c #000000",
"4	c #E2B342",
"5	c #C9A020",
"6	c #FFFFA5",
"7	c #FFF794",
"8	c #E7BE52",
"9	c #CEBC5B",
"0	c #A5720C",
"q	c #CFA225",
"w	c #D7B83F",
"e	c #EFBA42",
"r	c #C69A19",
"t	c #F0E479",
"y	c #FFE37B",
"u	c #FFDF7B",
"i	c #DEB242",
"p	c #C79C1B",
"a	c #FFD76B",
"s	c #BF9928",
"                ",
"  ....          ",
" .XXXXo         ",
"oXOOOOXoooooo   ",
"o+@@@@@XXXXXo#  ",
"o$%ooooooooooo& ",
"o*o=XX-XXXXX;X: ",
"o>o,OOOOOOOO<123",
"o456777777778903",
"oqwO$$$$$$$;eo3 ",
"ortOyyyyyyyui#3 ",
"opOaaaaaaaaas03 ",
" 0000000000003  ",
"   3333333333   ",
"                ",
"                "};
