/* XPM */
static const char *refresh_xpm[] = {
/* columns rows colors chars-per-pixel */
"16 16 51 1",
"  c black",
". c #5A6394",
"X c #636394",
"o c #636B9C",
"O c #6B73A5",
"+ c #6B7BAD",
"@ c #737BA5",
"# c #737BAD",
"$ c #009C00",
"% c #109C10",
"& c #18A521",
"* c #31AD42",
"= c #73C673",
"- c #5ABD84",
"; c #7B84AD",
": c #7384B5",
"> c #7B8CB5",
", c #7B8CBD",
"< c #52A5EF",
"1 c #8494C6",
"2 c #849CCE",
"3 c #84A5D6",
"4 c #84ADDE",
"5 c #8CADDE",
"6 c #94ADD6",
"7 c #8CB5E7",
"8 c #94BDEF",
"9 c #B5B5FF",
"0 c #A5DEAD",
"q c #A5D6CE",
"w c #A5D6EF",
"e c #A5D6FF",
"r c #ADD6FF",
"t c #BDDEEF",
"y c #B5D6FF",
"u c #BDDEFF",
"i c #C6CEFF",
"p c #CEDEF7",
"a c #D6DEEF",
"s c #C6E7EF",
"d c #C6E7FF",
"f c #CEE7FF",
"g c #D6E7F7",
"h c #DEE7F7",
"j c #E7EFF7",
"k c #EFEFF7",
"l c #EFF7FF",
"z c gray97",
"x c #F7F7FF",
"c c gray100",
"v c None",
/* pixels */
"vvvvvvvvvvvvvvvv",
"v8444444444:vvvv",
"v8ccczzzkja:6vvv",
"v7ccccccxlp:<6vv",
"v7cccccxllp:::vv",
"v5ccc=$$0$fi9#vv",
"v3zc=$$$$$fff#vv",
"v3zz%0l0$$fdd+vv",
"v2zzlll$$$fduOvv",
"v1kkklllssduuOvv",
"v,jj$$$$dtyryOvv",
"v>jj$$%qd&yrrovv",
"v;hh$$$$$*yeeovv",
"v;gg$0=*-wreeXvv",
"v@aaftduuyreeXvv",
"v@@@@@@@@@@@@.vv"
};
