/* XPM */
static const char *closedfolder16x1632bpp_xpm[] = {
"16 16 44 1",
" 	c None",
".	c #CC9933",
"X	c #CB9832",
"o	c #C99630",
"O	c #C7942E",
"+	c #FFFFFF",
"@	c #C28F29",
"#	c #FFFF99",
"$	c #BD8A24",
"%	c #BA8721",
"&	c #B7841E",
"*	c #B5821C",
"=	c #B3801A",
"-	c #B07D17",
";	c #FFF791",
":	c #FFF48E",
">	c #AE7B15",
",	c #FFEB85",
"<	c #FFE680",
"1	c #C5922C",
"2	c #C08D27",
"3	c #BC8923",
"4	c #B8851F",
"5	c #B4811B",
"6	c #FFE07A",
"7	c #A3700A",
"8	c #FFD46E",
"9	c #F8C55F",
"0	c #A06D07",
"q	c #030303",
"w	c #FFCC66",
"e	c #EFBC56",
"r	c #9E6B05",
"t	c #E6B34D",
"y	c #9C6903",
"u	c #BF8C26",
"i	c #DCA943",
"p	c #9A6701",
"a	c #D3A03A",
"s	c #996600",
"d	c #AB7812",
"f	c #A8750F",
"g	c #A5720C",
"h	c #020202",
"                ",
"                ",
"  .XoO          ",
" .++++@         ",
".+####+$%&*=-   ",
"X;:::::+++++>   ",
"o,<1111112345== ",
"O61+++++++++<+7 ",
"18.#########9#0q",
"@wX#;;;;;;;;e#rq",
"2w1#,,,,,,,,t#yq",
"$wu#66666666i#pq",
"%w4#88888888a#sq",
" *=->dfg70rypsh ",
"   qqqqqqqqqqq  ",
"                "};
