/* XPM */
static const char *defaultfile_xpm[] = {
"16 16 16 1",
" 	c #FFFFFF",
".	c #868686",
"X	c #999999",
"o	c #E7E7D6",
"O	c #555555",
"+	c #080808",
"@	c #CBCBCB",
"#	c #000099",
"$	c #FFCC33",
"%	c #FFFF00",
"&	c #800000",
"*	c #0000FF",
"=	c #FF0000",
"-	c #00FFFF",
";	c #008000",
":	c #CCCCCC",
" ..........X    ",
" .oooooooooXO   ",
" .         X O  ",
" .         XOOO ",
" . .........+@O ",
" . .#$######+ O ",
" . .########+ O ",
" . .       o+ O ",
" . . %&  * o+ O ",
" . . &= *-*o+ O ",
" . .  &  ;;o+ O ",
" . .oooooooo+ O ",
" . ++++++++++ O ",
" .            O ",
" .::::::::::::O ",
" OOOOOOOOOOOOOO "};
