/* XPM */ 
static char * exe_xpm[] = {
"16 16 147 2",
"  	c None",
"! 	c black",
"# 	c #8BAAEA",
"$ 	c #86A6EA",
"% 	c #7FA1E9",
"& 	c #769BE8",
"' 	c #6C94E7",
"( 	c #628EE6",
") 	c #5887E5",
"* 	c #4E81E4",
"+ 	c #467BE4",
", 	c #3E76E3",
"- 	c #3972E2",
". 	c #A2C2FF",
"0 	c #9FC0FE",
"1 	c #9ABDFD",
"2 	c #96B9FC",
"3 	c #90B5FB",
"4 	c #8BB0FA",
"5 	c #84ABF9",
"6 	c #7DA7F8",
"7 	c #77A2F6",
"8 	c #719DF5",
"9 	c #6A99F5",
": 	c #6595F3",
"; 	c #3165CD",
"< 	c #84A5E9",
"= 	c #7A9FE9",
"> 	c #6E97E7",
"? 	c #5686E5",
"@ 	c #4A7DE3",
"A 	c #4076E3",
"B 	c #2F62C8",
"C 	c #A3B2C8",
"D 	c white",
"E 	c #FEFEFF",
"F 	c #FCFDFE",
"G 	c #F9FBFE",
"H 	c #F7F9FD",
"I 	c #354963",
"J 	c #9EAEC3",
"K 	c #DED4BB",
"L 	c #BBA676",
"M 	c #B7A373",
"N 	c #B29E6F",
"O 	c #AE9A6B",
"P 	c #AA9467",
"Q 	c #A68F64",
"R 	c #A18A5F",
"S 	c #9B845B",
"T 	c #BEAF97",
"U 	c #F6F9FD",
"V 	c #E7EDF9",
"W 	c #9AA9BE",
"X 	c #B7A473",
"Y 	c #F7F0AB",
"Z 	c #F7EFA7",
"[ 	c #F7EB9F",
"] 	c #766859",
"^ 	c #F6F8FD",
"_ 	c #F3F6FC",
"` 	c #E4EBF9",
"a 	c #B09B6D",
"b 	c #D6D8C7",
"c 	c #BDC5D5",
"d 	c #B8C1D3",
"e 	c #B3BDCF",
"f 	c #AFBACD",
"g 	c #ABB6CA",
"h 	c #A7B3C7",
"i 	c #A3AFC5",
"j 	c #9FABC3",
"k 	c #BCC5D7",
"l 	c #E0E8F8",
"m 	c #A89266",
"n 	c #B4BED0",
"o 	c #FDFDFF",
"p 	c #FAFBFE",
"q 	c #6C7D94",
"r 	c #DDE5F7",
"s 	c #9F895E",
"t 	c #F6E99A",
"u 	c #A9B4C8",
"v 	c #93A2B6",
"w 	c #8C9BB0",
"x 	c #8595AA",
"y 	c #FEFEFE",
"z 	c #77879D",
"{ 	c #F8FAFD",
"| 	c #DDE5F8",
"} 	c #60728A",
"~ 	c #D9E3F6",
" !	c #96A5BA",
"!!	c #977F57",
"#!	c #F4DC79",
"$!	c #9EABC2",
"%!	c #FDFDFE",
"&!	c #F9FBFD",
"'!	c #F6F8FC",
"(!	c #F1F4FB",
")!	c #D0DCF4",
"*!	c #556780",
"+!	c #D6E0F6",
",!	c #93A2B7",
"-!	c #BAAB93",
".!	c #625245",
"0!	c #94A2BA",
"1!	c #FAFCFE",
"2!	c #CD2B07",
"3!	c #BF270A",
"4!	c #AE240D",
"5!	c #9E2010",
"6!	c #C5D3F2",
"7!	c #4A5E77",
"8!	c #D3DDF5",
"9!	c #FEFFFF",
":!	c #8998B2",
";!	c #D7E1F6",
"<!	c #D2DDF5",
"=!	c #CDD9F4",
">!	c #C7D6F3",
"?!	c #C3D2F2",
"@!	c #BFCEF1",
"A!	c #BACCEF",
"B!	c #40556F",
"C!	c #D0DBF4",
"D!	c #FCFDFF",
"E!	c #AEB8CB",
"F!	c #5A6C85",
"G!	c #546880",
"H!	c #4F637B",
"I!	c #455973",
"J!	c #41556F",
"K!	c #3C516C",
"L!	c #8494AB",
"M!	c #CCD9F4",
"N!	c #D1DDF5",
"O!	c #D1DCF5",
"P!	c #CFDBF4",
"Q!	c #CFDAF4",
"R!	c #CEDAF4",
"S!	c #CDD9F3",
"T!	c #CBD9F4",
"U!	c #CBD8F3",
"V!	c #CAD7F4",
"W!	c #CAD7F3",
"X!	c #C9D6F3",
"                                ",
"# # # # # $ % & ' ( ) * + , , - ",
"# . . 0 1 2 3 4 5 6 7 8 9 : : ; ",
"# # # # < = > ( ? @ A - - - - B ",
"C D D D D D D D D D D E F G H I ",
"J D K L M N O P Q R S T G U V I ",
"W D X Y Y Y Y Y Y Z [ ] ^ _ ` I ",
"C D a Y b c d e f g h i j k l I ",
"J D m Y n D D D D D D o p q r I ",
"W D s t u D v w x y z { | } ~ I ",
" !D !!#!$!D D D %!&!'!(!)!*!+!I ",
",!D -!.!0!D E 1!2!3!4!5!6!7!8!I ",
",!D 9!%!:!F ;!<!=!>!?!@!A!B!C!I ",
",!y D!p E!} F!G!H!7!I!J!K!L!M!I ",
",!F N!O!)!P!Q!R!S!M!T!U!V!W!X!I ",
",!I I I I I I I I I I I I I I I "};