/* XPM */
static char *c_xpm[] = {
"16 16 5 1",
" 	c #FFFFFF",
".	c #808080",
"X	c #000000",
"o	c #C0C0C0",
"O	c #000080",
" ..........     ",
" .        X.    ",
" .        X .   ",
" .        XXXX  ",
" .          oX  ",
" .   OOOO   oX  ",
" .  OO  OO  oX  ",
" .  OO  OO  oX  ",
" .  OO      oX  ",
" .  OO  OO  oX  ",
" .  OO  OO  oX  ",
" .   OOOO   oX  ",
" .          oX  ",
" .          oX  ",
" .oooooooooooX  ",
" XXXXXXXXXXXXX  "};
