/* XPM */
static char *doc_xpm[] = {
/* columns rows colors chars-per-pixel */
"16 16 86 1",
"L c #E3EAF8",
"K c #E8EEF9",
"P c #DEE6F8",
"D c #EDF2FB",
"c c #E8EEFA",
"m c #96A5BA",
"& c #AFBFD5",
"S c #CDDAF3",
"B c #E6EBF9",
"+ c #FFFFFF",
"U c #D5DFF5",
"b c #DFE7F7",
"Y c #D0DBF5",
"; c #BAC5D4",
"F c #3165D0",
"^ c #CEDBF4",
"N c #D3DFF5",
"= c #FBFCFE",
"o c #A9B9CF",
"g c #254B99",
"H c #254B9A",
"0 c #EFF4FB",
"3 c #A7B6CC",
"8 c #2852A8",
"( c #C5D4F2",
"x c #EDF1FB",
"t c #F2F5FC",
"w c #FCFDFF",
"5 c #3066D0",
"$ c #354963",
"d c #2B59B7",
"` c #DCE5F7",
"Z c #D7E1F6",
". c #B2C2D8",
"s c #2E60C4",
"_ c #BCCDF0",
"R c #C6D5F2",
"n c #DAE2F6",
"v c #E4EAF8",
"y c #EEF2FB",
"9 c #F3F6FC",
"> c #FDFEFF",
": c #ABBBD1",
"2 c #364A64",
"A c #D3DEF4",
"~ c #D3DEF5",
"! c #D8E2F7",
"Q c #DDE6F8",
"k c #9AA9BE",
", c #FBFBFE",
"% c #7A8BA2",
"e c #F9FBFD",
"l c #F4F7FD",
"u c #EAEFFB",
"1 c #93A2B7",
"@ c #FEFFFF",
"G c #2851A7",
"/ c #CAD7F3",
"I c #D9E3F7",
"  c #C0C0C0",
"i c #E6ECF9",
"V c #E1E8F9",
"z c #F0F4FC",
"p c #9EAEC3",
"q c #A3B2C8",
"M c #244B9A",
") c #C1D0F1",
"T c #CBD8F3",
"j c #DFE8F8",
"# c #9CABC0",
"< c #F8F9FD",
"f c #2752A7",
"h c #22458E",
"W c #E2E9F9",
"r c #F6F9FD",
"- c #95A4B9",
"X c #AEBED4",
"O c #A4B3C9",
"7 c #2A59B7",
"E c #C2D1F1",
"J c #C7D5F3",
"C c #DBE5F7",
"a c #FEFEFE",
"* c #FEFEFF",
"4 c #326AD8",
"6 c #2D60C4",
/* pixels */
"                ",
"  ......XoOO    ",
"  .++++++@#$%   ",
"  &+++++*=-;$%  ",
"  :++++>,<1222  ",
"  3+4567890112  ",
"  q++wertyui1$  ",
"  pa45sdfghj1$  ",
"  k=<lzxcvbn1$  ",
"  mr456d8MhN1$  ",
"  19yuBVCZAS1$  ",
"  1D4F6dGHhJ1$  ",
"  1KLPIUYTRE1$  ",
"  1WQ!~^/()_1$  ",
"  1`111111111$  ",
"  1$$$$$$$$$$$  "
};
