/* XPM */
static char *folder256_xpm[] = {
"16 16 24 1",
" 	c #FFFFFF",
".	c #BD9E31",
"X	c #FFFBF7",
"o	c #FFFF9C",
"O	c #B58E18",
"+	c #A57D10",
"@	c #FFF39C",
"#	c #FFF78C",
"$	c #FFF38C",
"%	c #FFEB84",
"&	c #FFE784",
"*	c #FFDF7B",
"=	c #F7D784",
"-	c #9C7918",
";	c #FFD36B",
":	c #FFF7A5",
">	c #FFCB63",
",	c #FFFB94",
"<	c #E7BE52",
"1	c #DEB64A",
"2	c #FFE37B",
"3	c #DEB242",
"4	c #FFD76B",
"5	c #DEB239",
"                ",
"                ",
"  ....          ",
" .   X.         ",
". oooo OOOOO+   ",
".@####$     +   ",
".%&OOOOOOOOOOOO ",
".*O XXXXX   =XO-",
".;Ooooo:oooo>oO-",
".>Oo,,,,,,,$<oO-",
".>Oo&&&&&&&%1:O-",
".>Oo2222222*3oO-",
".>Oo444444445@O-",
" OOOOOOOOOOOOOO-",
"  ------------- ",
"                "};
