/* XPM */
static char *h_xpm[] = {
"16 16 5 1",
" 	c #FFFFFF",
".	c #808080",
"X	c #C0C0C0",
"o	c #000000",
"O	c #000080",
" ..........     ",
" .        X.    ",
" .        X .   ",
" .        oooo  ",
" .  OO      Xo  ",
" .  OO      Xo  ",
" .  OOOOO   Xo  ",
" .  OO  OO  Xo  ",
" .  OO  OO  Xo  ",
" .  OO  OO  Xo  ",
" .  OO  OO  Xo  ",
" .  OO  OO  Xo  ",
" .          Xo  ",
" .          Xo  ",
" .XXXXXXXXXXXo  ",
" ooooooooooooo  "};
