/* XPM */
static char *HomeHS_xpm[] = {
/* columns rows colors chars-per-pixel */
"16 16 72 1",
"d c #9D917A",
". c #645F53",
"c c #495462",
"1 c #B9BBC0",
", c #3B1A14",
"q c #CD8F00",
"  c None",
"L c #9EADC6",
"+ c #DAA721",
"s c #A39982",
"N c #47515F",
"x c #A6B2C6",
"F c #BABFC9",
"D c #BFC3CA",
"9 c #B5B8C0",
"C c #514438",
"r c #E7ECF6",
"8 c #F1F4FA",
"A c #9AAAC5",
"u c #27211C",
"B c #E0A308",
"- c #B8B9BC",
"i c #525D6C",
"6 c #CC9005",
"< c #BDBDC0",
"Z c #B1C1E1",
"m c #BBC9E5",
"K c #43392E",
"y c #A2A6AF",
"I c #96A7C4",
"k c #F0B30E",
"* c #6C3127",
"h c #1F2A39",
"a c #A89F8A",
"V c #8A7855",
"2 c #53463A",
"@ c #592820",
"o c #79372C",
"$ c #6F5E4E",
"X c #544D44",
"w c #40372D",
"f c #D1DBEE",
"U c #434D5B",
"J c #D19302",
"b c #E3A609",
"p c #ACA48F",
"e c #C0C0C3",
"5 c #483C33",
"% c #6B5B4B",
"M c #A0AEC6",
"t c #DCE4F2",
"S c #444E5D",
"P c #99AAC5",
"n c #645446",
"O c #DFAF2C",
"g c #ADB7C7",
"= c #4A211A",
"z c #C6D1E9",
"0 c #443930",
"3 c #D09407",
"l c #ECAF0C",
"G c #978971",
": c #605144",
"# c #EFB312",
"v c #EAAC0B",
"& c #E0A714",
"H c #D69904",
"4 c #B8BAC0",
"j c #4D5765",
"7 c #F9FAFD",
"; c #A7ABB2",
"> c #D99D0A",
/* pixels */
"                ",
"      ..XX oo   ",
"     ..O+XXo@   ",
"    ..#$%&X*=   ",
"   ..#$-;:>X,   ",
"  ..#$<  123XX  ",
" ..#$<    456XX ",
" .#$<    7890qX ",
" .we    78rtyuX ",
"  i   pasdtfgh  ",
"  j   akl$fzxh  ",
"  c  7svbnzmMh  ",
"  N 78dBVCmZAh  ",
"  S7DFGHJKLPIh  ",
"  Uhhhhhhhhhhh  ",
"                "
};
