/* XPM */
static const char * zoom_new_xpm[] = {
"24 24 300 2",
"  	c None",
". 	c #94005D",
"+ 	c #8F0026",
"@ 	c #8E0015",
"# 	c #990099",
"$ 	c #FF3300",
"% 	c #F26B61",
"& 	c #DF232F",
"* 	c #A4151F",
"= 	c #A81B02",
"- 	c #AC1F00",
"; 	c #FF59FF",
"> 	c #E576E5",
", 	c #D232D2",
"' 	c #FE3300",
") 	c #FE9277",
"! 	c #FD3200",
"~ 	c #FFB1FF",
"{ 	c #FC3200",
"] 	c #FC8B6F",
"^ 	c #FA3100",
"/ 	c #FFACFF",
"( 	c #F93100",
"_ 	c #FA8568",
": 	c #F73100",
"< 	c #B63600",
"[ 	c #D57700",
"} 	c #FFCC00",
"| 	c #FFA8FF",
"1 	c #F63000",
"2 	c #F87E60",
"3 	c #F43000",
"4 	c #E5B865",
"5 	c #FFF524",
"6 	c #FFEB00",
"7 	c #FFE000",
"8 	c #FCD217",
"9 	c #EBB03E",
"0 	c #FE58FF",
"a 	c #FE9EFF",
"b 	c #F33000",
"c 	c #F56642",
"d 	c #F12F00",
"e 	c #FEFE18",
"f 	c #FEFEC5",
"g 	c #FDFA5D",
"h 	c #E1AE3F",
"i 	c #D89518",
"j 	c #D48A00",
"k 	c #FA55FF",
"l 	c #FA89FF",
"m 	c #F853FF",
"n 	c #F02F00",
"o 	c #F2603D",
"p 	c #ED2E00",
"q 	c #FCF700",
"r 	c #FDFAA1",
"s 	c #F9EF00",
"t 	c #D58D03",
"u 	c #D48B01",
"v 	c #F350FF",
"w 	c #F682FF",
"x 	c #F14EFF",
"y 	c #EC2E00",
"z 	c #F05B37",
"A 	c #EA2D00",
"B 	c #FBF68D",
"C 	c #F6E800",
"D 	c #D69106",
"E 	c #D1941A",
"F 	c #BEA773",
"G 	c #ACB5B1",
"H 	c #B0B7B8",
"I 	c #A9B0B1",
"J 	c #A0A8A9",
"K 	c #909A9C",
"L 	c #ED4BFF",
"M 	c #F17AFF",
"N 	c #EB4AFF",
"O 	c #E92D00",
"P 	c #ED5631",
"Q 	c #E72D00",
"R 	c #F6E700",
"S 	c #F9F17A",
"T 	c #F3E000",
"U 	c #A2B944",
"V 	c #BBC7BE",
"W 	c #DADDDE",
"X 	c #D5D9D9",
"Y 	c #B3B9BB",
"Z 	c #AEB5B6",
"` 	c #BCC1C2",
" .	c #AFB5B6",
"..	c #8E989A",
"+.	c #E646FF",
"@.	c #EA67FF",
"#.	c #E445FF",
"$.	c #E62C00",
"%.	c #E94821",
"&.	c #E42C00",
"*.	c #F6E64C",
"=.	c #E9D517",
"-.	c #BBC6BE",
";.	c #F6F6F7",
">.	c #B1BFBD",
",.	c #92B5AC",
"'.	c #71C5AB",
").	c #86CCBF",
"!.	c #9BBCC3",
"~.	c #9FACAF",
"{.	c #B6BCBD",
"].	c #848E90",
"^.	c #E042FF",
"/.	c #E35DFF",
"(.	c #DE40FF",
"_.	c #E32C00",
":.	c #E54119",
"<.	c #E12B00",
"[.	c #F0D800",
"}.	c #F3DE3E",
"|.	c #C8C173",
"1.	c #E3E5E5",
"2.	c #B6C3C2",
"3.	c #B7DFCE",
"4.	c #A5D8BC",
"5.	c #A3D7BD",
"6.	c #B4E0CF",
"7.	c #B4E3E8",
"8.	c #A0D2E2",
"9.	c #A3B0B5",
"0.	c #A8AFB0",
"a.	c #6B777A",
"b.	c #D93DFF",
"c.	c #DD55FF",
"d.	c #D73BFF",
"e.	c #E02B00",
"f.	c #E23D16",
"g.	c #DE2A00",
"h.	c #EED000",
"i.	c #F0D62F",
"j.	c #BBBFB3",
"k.	c #95BAB3",
"l.	c #B2E2C7",
"m.	c #BEE0C2",
"n.	c #CBE6D2",
"o.	c #B2DED5",
"p.	c #88CED8",
"q.	c #5DBBD5",
"r.	c #4599BC",
"s.	c #BFC4C5",
"t.	c #758083",
"u.	c #D338FF",
"v.	c #D74EFF",
"w.	c #D136FF",
"x.	c #DD2A00",
"y.	c #DF3912",
"z.	c #DB2A00",
"A.	c #EBC800",
"B.	c #EBCA18",
"C.	c #B5BBBC",
"D.	c #C0C5C6",
"E.	c #A5DED0",
"F.	c #9BDAB9",
"G.	c #C6E6DD",
"H.	c #AEDDE5",
"I.	c #74C6D2",
"J.	c #4EB2C7",
"K.	c #33A0C7",
"L.	c #2598CF",
"M.	c #BEC3C5",
"N.	c #768285",
"O.	c #CD33FF",
"P.	c #CF3DFF",
"Q.	c #CC33FF",
"R.	c #DA2900",
"S.	c #DB320B",
"T.	c #D82900",
"U.	c #E8C100",
"V.	c #E7C00B",
"W.	c #BEC2C3",
"X.	c #7CCCC0",
"Y.	c #9ADAC2",
"Z.	c #9CDBE2",
"`.	c #7CCFD8",
" +	c #5FC1CE",
".+	c #47ADC8",
"++	c #309CC9",
"@+	c #3099D1",
"#+	c #C8CCCD",
"$+	c #747F82",
"%+	c #CE3BFF",
"&+	c #D72900",
"*+	c #D72D05",
"=+	c #D52800",
"-+	c #E5B900",
";+	c #E4B602",
">+	c #A8ACA2",
",+	c #D2D4D5",
"'+	c #69A9A9",
")+	c #78CABC",
"!+	c #60C2D2",
"~+	c #6DC8D4",
"{+	c #52BAD2",
"]+	c #3BA3C9",
"^+	c #2796CC",
"/+	c #6AA9CC",
"(+	c #DBDEDF",
"_+	c #6A777A",
":+	c #CD3AFF",
"<+	c #D42800",
"[+	c #D42A03",
"}+	c #D22700",
"|+	c #E2B100",
"1+	c #E1AD00",
"2+	c #AEA061",
"3+	c #C2C6C7",
"4+	c #A3B4B5",
"5+	c #43AAB0",
"6+	c #42AFD3",
"7+	c #4CB3D4",
"8+	c #37A8D3",
"9+	c #2897CD",
"0+	c #46A1D3",
"a+	c #C5D2D8",
"b+	c #C1C7C8",
"c+	c #4A5A5D",
"d+	c #CD37FF",
"e+	c #D12700",
"f+	c #D02801",
"g+	c #CF2600",
"h+	c #DFAA00",
"i+	c #D4A105",
"j+	c #7E7E61",
"k+	c #98A0A2",
"l+	c #CED1D1",
"m+	c #A2B5B9",
"n+	c #479CC1",
"o+	c #2B9FD5",
"p+	c #34A2D8",
"q+	c #6AAACD",
"r+	c #CAD6DC",
"s+	c #EFF1F1",
"t+	c #CE2600",
"u+	c #CD2600",
"v+	c #CC2600",
"w+	c #D39D05",
"x+	c #75755A",
"y+	c #C0C5C4",
"z+	c #7F8989",
"A+	c #899395",
"B+	c #BBC0C1",
"C+	c #D5D8D8",
"D+	c #CED1D2",
"E+	c #D5D8D9",
"F+	c #E9EAEA",
"G+	c #CACECF",
"H+	c #69797F",
"I+	c #B51807",
"J+	c #BB2408",
"K+	c #75745A",
"L+	c #7C8686",
"M+	c #869092",
"N+	c #6EA260",
"O+	c #638A5F",
"P+	c #77878D",
"Q+	c #7C8789",
"R+	c #788486",
"S+	c #6B7B81",
"T+	c #476982",
"U+	c #4279B0",
"V+	c #616368",
"W+	c #6DA65B",
"X+	c #55AA33",
"Y+	c #54A932",
"Z+	c #50ABE2",
"`+	c #4FAAE1",
" @	c #4689C4",
".@	c #4585C1",
"+@	c #4382BF",
"@@	c #5D6B6E",
"#@	c #B7844F",
"$@	c #61A32E",
"%@	c #54A832",
"&@	c #53A731",
"*@	c #4FA9E0",
"=@	c #4FA8E0",
"-@	c #488CC7",
";@	c #4485C1",
">@	c #6C787A",
",@	c #7E8888",
"'@	c #4AA2D9",
")@	c #4EA7DF",
"!@	c #4EA7DE",
"~@	c #498EC8",
"{@	c #488CC6",
"]@	c #373D3C",
"^@	c #393E3F",
"/@	c #3C8EC5",
"(@	c #4093C9",
"_@	c #4388C1",
"            . + @ @                             ",
"      # # $ % & * = -                           ",
"    ; > , ' ) ! - - -                           ",
"    ; ~ ; { ] ^ - - -                           ",
"    ; / ; ( _ : - < [ }                         ",
"    ; | ; 1 2 3 4 5 6 7 8 9                     ",
"    0 a 0 b c d e f g h i j                     ",
"    k l m n o p q r s t u j                     ",
"    v w x y z A s B C D E F G H I J K           ",
"    L M N O P Q R S T U V W X Y Z `  ...        ",
"    +.@.#.$.%.&.T *.=.-.;.>.,.'.).!.~.{.].      ",
"    ^./.(._.:.<.[.}.|.1.2.3.4.5.6.7.8.9.0.a.    ",
"    b.c.d.e.f.g.h.i.j.1.k.l.m.n.o.p.q.r.s.t.    ",
"    u.v.w.x.y.z.A.B.C.D.E.F.G.H.I.J.K.L.M.N.    ",
"    O.P.Q.R.S.T.U.V.Z W.X.Y.Z.`. +.+++@+#+$+    ",
"    Q.%+Q.&+*+=+-+;+>+,+'+)+!+~+{+]+^+/+(+_+    ",
"    Q.:+Q.<+[+}+|+1+2+3+4+5+6+7+8+9+0+a+b+c+    ",
"    Q.d+Q.e+f+g+h+i+j+k+l+m+n+o+p+q+r+s+_+      ",
"        Q.t+u+v+w+x+y+z+A+B+C+D+E+F+G+H+        ",
"            I+J+K+y+L+M+N+O+P+Q+R+S+T+U+        ",
"              V+y+L+M+W+X+Y+Z+Z+`+ @.@+@        ",
"            @@y+L+M+#@$@%@&@`+*@=@-@ @;@        ",
"            >@,@M+          '@)@!@~@{@          ",
"            ]@^@              /@(@_@            "};
